# xmcd
#
# Track frame offsets:
#	150
#	19092
#	42820
#	64952
#	84640
#	106377
#	124832
#	144137
#	166430
#
# Disc length: 2468 seconds
#
# Revision: 1
# Processed by: cddbd v1.4PL0 Copyright (c) Steve Scherf et al.
# Submitted via: EasyCDDAExtractor 5.1.0
#
DISCID=7309a209
DTITLE=Mel Waiters - Let Me Show You How To Love
DYEAR=2001
DGENRE=Club
TTITLE0=Ice Chest
TTITLE1=I Can Light a Candle
TTITLE2=Real Mother For Ya
TTITLE3=What I Had In You
TTITLE4=Show You How To Love Again
TTITLE5=Big Mama
TTITLE6=How Can I Get Next To You
TTITLE7=He Didn't Take Yours Woman
TTITLE8=Brand New Bed
EXTD=
EXTT0=
EXTT1=
EXTT2=
EXTT3=
EXTT4=
EXTT5=
EXTT6=
EXTT7=
EXTT8=
PLAYORDER=
